  0
SECTION
  2
HEADER
  9
$ACADVER
  1
AC1014
  9
$HANDSEED
  5
FFFF
  9
$MEASUREMENT
 70
     1
  0
ENDSEC
  0
SECTION
  2
TABLES
  0
TABLE
  2
VPORT
  5
8
330
0
100
AcDbSymbolTable
 70
     4
  0
VPORT
  5
2E
330
8
100
AcDbSymbolTableRecord
100
AcDbViewportTableRecord
  2
*ACTIVE
 70
     0
 10
0.0
 20
0.0
 11
1.0
 21
1.0
 12
210.0
 22
148.5
 13
0.0
 23
0.0
 14
10.0
 24
10.0
 15
10.0
 25
10.0
 16
0.0
 26
0.0
 36
1.0
 17
0.0
 27
0.0
 37
0.0
 40
341.0
 41
1.24
 42
50.0
 43
0.0
 44
0.0
 50
0.0
 51
0.0
 71
     0
 72
   100
 73
     1
 74
     3
 75
     0
 76
     0
 77
     0
 78
     0
  0
ENDTAB
  0
TABLE
  2
LTYPE
  5
5
330
0
100
AcDbSymbolTable
 70
     1
  0
LTYPE
  5
14
330
5
100
AcDbSymbolTableRecord
100
AcDbLinetypeTableRecord
  2
BYBLOCK
 70
     0
  3

 72
    65
 73
     0
 40
0.0
  0
LTYPE
  5
15
330
5
100
AcDbSymbolTableRecord
100
AcDbLinetypeTableRecord
  2
BYLAYER
 70
     0
  3

 72
    65
 73
     0
 40
0.0
  0
LTYPE
  5
16
330
5
100
AcDbSymbolTableRecord
100
AcDbLinetypeTableRecord
  2
CONTINUOUS
 70
     0
  3
Solid line
 72
    65
 73
     0
 40
0.0
  0
ENDTAB
  0
TABLE
  2
LAYER
  5
2
100
AcDbSymbolTable
 70
2
  0
LAYER
  5
50
100
AcDbSymbolTableRecord
100
AcDbLayerTableRecord
  2
0
 70
0
  6
CONTINUOUS
  0
LAYER
  5
51
100
AcDbSymbolTableRecord
100
AcDbLayerTableRecord
  2
Layer_1
 70
0
  6
CONTINUOUS
  0
ENDTAB
  0
TABLE
  2
STYLE
  5
3
330
0
100
AcDbSymbolTable
 70
     1
  0
STYLE
  5
11
330
3
100
AcDbSymbolTableRecord
100
AcDbTextStyleTableRecord
  2
STANDARD
 70
     0
 40
0.0
 41
1.0
 50
0.0
 71
     0
 42
2.5
  3
txt
  4

  0
ENDTAB
  0
TABLE
  2
VIEW
  5
6
330
0
100
AcDbSymbolTable
 70
     0
  0
ENDTAB
  0
TABLE
  2
UCS
  5
7
330
0
100
AcDbSymbolTable
 70
     0
  0
ENDTAB
  0
TABLE
  2
APPID
  5
9
330
0
100
AcDbSymbolTable
 70
     2
  0
APPID
  5
12
330
9
100
AcDbSymbolTableRecord
100
AcDbRegAppTableRecord
  2
ACAD
 70
     0
  0
ENDTAB
  0
TABLE
  2
DIMSTYLE
  5
A
330
0
100
AcDbSymbolTable
 70
     1
  0
DIMSTYLE
105
27
330
A
100
AcDbSymbolTableRecord
100
AcDbDimStyleTableRecord
  2
ISO-25
 70
     0
  3

  4

  5

  6

  7

 40
1.0
 41
2.5
 42
0.625
 43
3.75
 44
1.25
 45
0.0
 46
0.0
 47
0.0
 48
0.0
140
2.5
141
2.5
142
0.0
143
0.03937007874016
144
1.0
145
0.0
146
1.0
147
0.625
 71
     0
 72
     0
 73
     0
 74
     0
 75
     0
 76
     0
 77
     1
 78
     8
170
     0
171
     3
172
     1
173
     0
174
     0
175
     0
176
     0
177
     0
178
     0
270
     2
271
     2
272
     2
273
     2
274
     3
340
11
275
     0
280
     0
281
     0
282
     0
283
     0
284
     8
285
     0
286
     0
287
     3
288
     0
  0
ENDTAB
  0
TABLE
  2
BLOCK_RECORD
  5
1
330
0
100
AcDbSymbolTable
 70
     1
  0
BLOCK_RECORD
  5
1F
330
1
100
AcDbSymbolTableRecord
100
AcDbBlockTableRecord
  2
*MODEL_SPACE
  0
BLOCK_RECORD
  5
1B
330
1
100
AcDbSymbolTableRecord
100
AcDbBlockTableRecord
  2
*PAPER_SPACE
  0
ENDTAB
  0
ENDSEC
  0
SECTION
  2
BLOCKS
  0
BLOCK
  5
20
330
1F
100
AcDbEntity
  8
0
100
AcDbBlockBegin
  2
*MODEL_SPACE
 70
     0
 10
0.0
 20
0.0
 30
0.0
  3
*MODEL_SPACE
  1

  0
ENDBLK
  5
21
330
1F
100
AcDbEntity
  8
0
100
AcDbBlockEnd
  0
BLOCK
  5
1C
330
1B
100
AcDbEntity
 67
     1
  8
0
100
AcDbBlockBegin
  2
*PAPER_SPACE
  1

  0
ENDBLK
  5
1D
330
1B
100
AcDbEntity
 67
     1
  8
0
100
AcDbBlockEnd
  0
ENDSEC
  0
SECTION
  2
ENTITIES
  0
LWPOLYLINE
  5
100
100
AcDbEntity
  8
Layer_1
 62
7
100
AcDbPolyline
 90
104
 70
1
 10
2.108785
 20
3.266020
 30
0.0
 10
2.142385
 20
3.305420
 30
0.0
 10
2.181385
 20
3.336320
 30
0.0
 10
2.224685
 20
3.358520
 30
0.0
 10
2.271085
 20
3.371820
 30
0.0
 10
2.319385
 20
3.375820
 30
0.0
 10
2.368485
 20
3.370820
 30
0.0
 10
2.417185
 20
3.356120
 30
0.0
 10
2.464385
 20
3.331720
 30
0.0
 10
2.503485
 20
3.302220
 30
0.0
 10
2.534785
 20
3.268820
 30
0.0
 10
2.557985
 20
3.232320
 30
0.0
 10
2.572985
 20
3.193320
 30
0.0
 10
2.578985
 20
3.152520
 30
0.0
 10
2.576985
 20
3.110720
 30
0.0
 10
2.566085
 20
3.068520
 30
0.0
 10
2.546185
 20
3.026620
 30
0.0
 10
2.523585
 20
2.994420
 30
0.0
 10
2.499185
 20
2.971020
 30
0.0
 10
2.473385
 20
2.956320
 30
0.0
 10
2.446485
 20
2.950320
 30
0.0
 10
2.418985
 20
2.953320
 30
0.0
 10
2.391285
 20
2.964520
 30
0.0
 10
2.363685
 20
2.984220
 30
0.0
 10
2.336685
 20
3.012520
 30
0.0
 10
2.349785
 20
3.021520
 30
0.0
 10
2.363885
 20
3.029520
 30
0.0
 10
2.378385
 20
3.037520
 30
0.0
 10
2.392485
 20
3.045520
 30
0.0
 10
2.405485
 20
3.054520
 30
0.0
 10
2.416785
 20
3.063520
 30
0.0
 10
2.425785
 20
3.073620
 30
0.0
 10
2.431785
 20
3.084720
 30
0.0
 10
2.433785
 20
3.096920
 30
0.0
 10
2.433225
 20
3.110820
 30
0.0
 10
2.430225
 20
3.125820
 30
0.0
 10
2.425225
 20
3.141220
 30
0.0
 10
2.418225
 20
3.156320
 30
0.0
 10
2.410225
 20
3.170520
 30
0.0
 10
2.401225
 20
3.183120
 30
0.0
 10
2.391225
 20
3.193420
 30
0.0
 10
2.373825
 20
3.206320
 30
0.0
 10
2.355925
 20
3.214320
 30
0.0
 10
2.337725
 20
3.217320
 30
0.0
 10
2.319525
 20
3.216320
 30
0.0
 10
2.301625
 20
3.211320
 30
0.0
 10
2.284225
 20
3.202320
 30
0.0
 10
2.267525
 20
3.189820
 30
0.0
 10
2.251825
 20
3.174220
 30
0.0
 10
2.228625
 20
3.141320
 30
0.0
 10
2.213525
 20
3.104820
 30
0.0
 10
2.206525
 20
3.066020
 30
0.0
 10
2.206985
 20
3.026120
 30
0.0
 10
2.214985
 20
2.986420
 30
0.0
 10
2.230385
 20
2.948120
 30
0.0
 10
2.252985
 20
2.912620
 30
0.0
 10
2.282685
 20
2.881120
 30
0.0
 10
2.334785
 20
2.842320
 30
0.0
 10
2.387785
 20
2.815720
 30
0.0
 10
2.441785
 20
2.801320
 30
0.0
 10
2.496885
 20
2.799320
 30
0.0
 10
2.553085
 20
2.809620
 30
0.0
 10
2.610485
 20
2.832420
 30
0.0
 10
2.669185
 20
2.867720
 30
0.0
 10
2.729185
 20
2.915620
 30
0.0
 10
2.709785
 20
2.818920
 30
0.0
 10
2.690485
 20
2.722720
 30
0.0
 10
2.671185
 20
2.626620
 30
0.0
 10
2.651785
 20
2.530220
 30
0.0
 10
2.632285
 20
2.433020
 30
0.0
 10
2.612485
 20
2.334620
 30
0.0
 10
2.592385
 20
2.234570
 30
0.0
 10
2.571885
 20
2.132430
 30
0.0
 10
2.557885
 20
2.215930
 30
0.0
 10
2.534385
 20
2.291430
 30
0.0
 10
2.502685
 20
2.360130
 30
0.0
 10
2.464185
 20
2.423130
 30
0.0
 10
2.420185
 20
2.481630
 30
0.0
 10
2.372085
 20
2.536730
 30
0.0
 10
2.321185
 20
2.589630
 30
0.0
 10
2.268885
 20
2.641530
 30
0.0
 10
2.246585
 20
2.663730
 30
0.0
 10
2.224485
 20
2.686230
 30
0.0
 10
2.202685
 20
2.709130
 30
0.0
 10
2.181285
 20
2.732330
 30
0.0
 10
2.160485
 20
2.756030
 30
0.0
 10
2.140385
 20
2.780230
 30
0.0
 10
2.121085
 20
2.804930
 30
0.0
 10
2.102685
 20
2.830230
 30
0.0
 10
2.070985
 20
2.883430
 30
0.0
 10
2.048785
 20
2.938030
 30
0.0
 10
2.035985
 20
2.993530
 30
0.0
 10
2.031985
 20
3.049430
 30
0.0
 10
2.037985
 20
3.105230
 30
0.0
 10
2.052485
 20
3.160430
 30
0.0
 10
2.075885
 20
3.214630
 30
0.0
 10
2.107985
 20
3.267330
 30
0.0
 10
2.107985
 20
3.267330
 30
0.0
 10
2.107975
 20
3.267340
 30
0.0
 10
2.107975
 20
3.267340
 30
0.0
 10
2.107975
 20
3.267340
 30
0.0
 10
2.107975
 20
3.267350
 30
0.0
 10
2.107975
 20
3.267350
 30
0.0
 10
2.107975
 20
3.267360
 30
0.0
  0
ENDSEC
  0
SECTION
  2
OBJECTS
  0
DICTIONARY
  5
C
330
0
100
AcDbDictionary
  3
ACAD_GROUP
350
D
  3
ACAD_MLINESTYLE
350
17
  0
DICTIONARY
  5
D
330
C
100
AcDbDictionary
  0
DICTIONARY
  5
1A
330
C
100
AcDbDictionary
  0
DICTIONARY
  5
17
330
C
100
AcDbDictionary
  3
STANDARD
350
18
  0
DICTIONARY
  5
19
330
C
100
AcDbDictionary
  0
ENDSEC
  0
EOF
