  0
SECTION
  2
HEADER
  9
$ACADVER
  1
AC1014
  9
$HANDSEED
  5
FFFF
  9
$MEASUREMENT
 70
     1
  0
ENDSEC
  0
SECTION
  2
TABLES
  0
TABLE
  2
VPORT
  5
8
330
0
100
AcDbSymbolTable
 70
     4
  0
VPORT
  5
2E
330
8
100
AcDbSymbolTableRecord
100
AcDbViewportTableRecord
  2
*ACTIVE
 70
     0
 10
0.0
 20
0.0
 11
1.0
 21
1.0
 12
210.0
 22
148.5
 13
0.0
 23
0.0
 14
10.0
 24
10.0
 15
10.0
 25
10.0
 16
0.0
 26
0.0
 36
1.0
 17
0.0
 27
0.0
 37
0.0
 40
341.0
 41
1.24
 42
50.0
 43
0.0
 44
0.0
 50
0.0
 51
0.0
 71
     0
 72
   100
 73
     1
 74
     3
 75
     0
 76
     0
 77
     0
 78
     0
  0
ENDTAB
  0
TABLE
  2
LTYPE
  5
5
330
0
100
AcDbSymbolTable
 70
     1
  0
LTYPE
  5
14
330
5
100
AcDbSymbolTableRecord
100
AcDbLinetypeTableRecord
  2
BYBLOCK
 70
     0
  3

 72
    65
 73
     0
 40
0.0
  0
LTYPE
  5
15
330
5
100
AcDbSymbolTableRecord
100
AcDbLinetypeTableRecord
  2
BYLAYER
 70
     0
  3

 72
    65
 73
     0
 40
0.0
  0
LTYPE
  5
16
330
5
100
AcDbSymbolTableRecord
100
AcDbLinetypeTableRecord
  2
CONTINUOUS
 70
     0
  3
Solid line
 72
    65
 73
     0
 40
0.0
  0
ENDTAB
  0
TABLE
  2
LAYER
  5
2
100
AcDbSymbolTable
 70
2
  0
LAYER
  5
50
100
AcDbSymbolTableRecord
100
AcDbLayerTableRecord
  2
0
 70
0
  6
CONTINUOUS
  0
LAYER
  5
51
100
AcDbSymbolTableRecord
100
AcDbLayerTableRecord
  2
Layer_1
 70
0
  6
CONTINUOUS
  0
ENDTAB
  0
TABLE
  2
STYLE
  5
3
330
0
100
AcDbSymbolTable
 70
     1
  0
STYLE
  5
11
330
3
100
AcDbSymbolTableRecord
100
AcDbTextStyleTableRecord
  2
STANDARD
 70
     0
 40
0.0
 41
1.0
 50
0.0
 71
     0
 42
2.5
  3
txt
  4

  0
ENDTAB
  0
TABLE
  2
VIEW
  5
6
330
0
100
AcDbSymbolTable
 70
     0
  0
ENDTAB
  0
TABLE
  2
UCS
  5
7
330
0
100
AcDbSymbolTable
 70
     0
  0
ENDTAB
  0
TABLE
  2
APPID
  5
9
330
0
100
AcDbSymbolTable
 70
     2
  0
APPID
  5
12
330
9
100
AcDbSymbolTableRecord
100
AcDbRegAppTableRecord
  2
ACAD
 70
     0
  0
ENDTAB
  0
TABLE
  2
DIMSTYLE
  5
A
330
0
100
AcDbSymbolTable
 70
     1
  0
DIMSTYLE
105
27
330
A
100
AcDbSymbolTableRecord
100
AcDbDimStyleTableRecord
  2
ISO-25
 70
     0
  3

  4

  5

  6

  7

 40
1.0
 41
2.5
 42
0.625
 43
3.75
 44
1.25
 45
0.0
 46
0.0
 47
0.0
 48
0.0
140
2.5
141
2.5
142
0.0
143
0.03937007874016
144
1.0
145
0.0
146
1.0
147
0.625
 71
     0
 72
     0
 73
     0
 74
     0
 75
     0
 76
     0
 77
     1
 78
     8
170
     0
171
     3
172
     1
173
     0
174
     0
175
     0
176
     0
177
     0
178
     0
270
     2
271
     2
272
     2
273
     2
274
     3
340
11
275
     0
280
     0
281
     0
282
     0
283
     0
284
     8
285
     0
286
     0
287
     3
288
     0
  0
ENDTAB
  0
TABLE
  2
BLOCK_RECORD
  5
1
330
0
100
AcDbSymbolTable
 70
     1
  0
BLOCK_RECORD
  5
1F
330
1
100
AcDbSymbolTableRecord
100
AcDbBlockTableRecord
  2
*MODEL_SPACE
  0
BLOCK_RECORD
  5
1B
330
1
100
AcDbSymbolTableRecord
100
AcDbBlockTableRecord
  2
*PAPER_SPACE
  0
ENDTAB
  0
ENDSEC
  0
SECTION
  2
BLOCKS
  0
BLOCK
  5
20
330
1F
100
AcDbEntity
  8
0
100
AcDbBlockBegin
  2
*MODEL_SPACE
 70
     0
 10
0.0
 20
0.0
 30
0.0
  3
*MODEL_SPACE
  1

  0
ENDBLK
  5
21
330
1F
100
AcDbEntity
  8
0
100
AcDbBlockEnd
  0
BLOCK
  5
1C
330
1B
100
AcDbEntity
 67
     1
  8
0
100
AcDbBlockBegin
  2
*PAPER_SPACE
  1

  0
ENDBLK
  5
1D
330
1B
100
AcDbEntity
 67
     1
  8
0
100
AcDbBlockEnd
  0
ENDSEC
  0
SECTION
  2
ENTITIES
  0
LWPOLYLINE
  5
100
100
AcDbEntity
  8
Layer_1
 62
7
100
AcDbPolyline
 90
17
 70
0
 10
-23.424743
 20
152.702384
 30
0.0
 10
-20.798682
 20
178.752336
 30
0.0
 10
-13.267020
 20
203.015379
 30
0.0
 10
-1.349533
 20
224.971726
 30
0.0
 10
14.434000
 20
244.101592
 30
0.0
 10
33.563801
 20
259.885190
 30
0.0
 10
55.520092
 20
271.802733
 30
0.0
 10
79.783095
 20
279.334436
 30
0.0
 10
105.833032
 20
281.960512
 30
0.0
 10
131.883100
 20
279.334436
 30
0.0
 10
156.146231
 20
271.802733
 30
0.0
 10
178.102641
 20
259.885190
 30
0.0
 10
197.232549
 20
244.101592
 30
0.0
 10
213.016172
 20
224.971726
 30
0.0
 10
224.933729
 20
203.015379
 30
0.0
 10
232.465436
 20
178.752336
 30
0.0
 10
235.091512
 20
152.702384
 30
0.0
  0
LWPOLYLINE
  5
101
100
AcDbEntity
  8
Layer_1
 62
7
100
AcDbPolyline
 90
17
 70
0
 10
235.091407
 20
152.702384
 30
0.0
 10
232.465331
 20
126.652331
 30
0.0
 10
224.933628
 20
102.389241
 30
0.0
 10
213.016085
 20
80.432887
 30
0.0
 10
197.232487
 20
61.303044
 30
0.0
 10
178.102621
 20
45.519485
 30
0.0
 10
156.146274
 20
33.601985
 30
0.0
 10
131.883231
 20
26.070318
 30
0.0
 10
105.833279
 20
23.444256
 30
0.0
 10
79.783226
 20
26.070318
 30
0.0
 10
55.520135
 20
33.601985
 30
0.0
 10
33.563782
 20
45.519485
 30
0.0
 10
14.433939
 20
61.303044
 30
0.0
 10
-1.349620
 20
80.432887
 30
0.0
 10
-13.267120
 20
102.389241
 30
0.0
 10
-20.798788
 20
126.652331
 30
0.0
 10
-23.424849
 20
152.702384
 30
0.0
  0
LWPOLYLINE
  5
102
100
AcDbEntity
  8
Layer_1
 62
7
100
AcDbPolyline
 90
23
 70
0
 10
202.974518
 20
129.251446
 30
0.0
 10
200.240783
 20
150.714672
 30
0.0
 10
192.468223
 20
170.337754
 30
0.0
 10
180.299810
 20
187.521178
 30
0.0
 10
164.378514
 20
201.665434
 30
0.0
 10
178.207446
 20
179.956239
 30
0.0
 10
183.233427
 20
154.178018
 30
0.0
 10
181.660940
 20
139.538116
 30
0.0
 10
177.150971
 20
125.902378
 30
0.0
 10
170.014755
 20
113.562942
 30
0.0
 10
160.563531
 20
102.811943
 30
0.0
 10
149.108534
 20
93.941521
 30
0.0
 10
135.961002
 20
87.243811
 30
0.0
 10
121.432171
 20
83.010951
 30
0.0
 10
105.833279
 20
81.535078
 30
0.0
 10
90.234488
 20
83.010951
 30
0.0
 10
75.705705
 20
87.243811
 30
0.0
 10
62.558179
 20
93.941521
 30
0.0
 10
51.103159
 20
102.811943
 30
0.0
 10
41.651896
 20
113.562942
 30
0.0
 10
34.515637
 20
125.902378
 30
0.0
 10
30.005632
 20
139.538116
 30
0.0
 10
28.433131
 20
154.178018
 30
0.0
  0
LWPOLYLINE
  5
103
100
AcDbEntity
  8
Layer_1
 62
7
100
AcDbPolyline
 90
17
 70
0
 10
8.691969
 20
129.251446
 30
0.0
 10
10.665529
 20
110.963296
 30
0.0
 10
16.325793
 20
93.929622
 30
0.0
 10
25.282137
 20
78.515338
 30
0.0
 10
37.143937
 20
65.085359
 30
0.0
 10
51.520568
 20
54.004599
 30
0.0
 10
68.021407
 20
45.637972
 30
0.0
 10
86.255828
 20
40.350392
 30
0.0
 10
105.833208
 20
38.506773
 30
0.0
 10
125.410589
 20
40.350392
 30
0.0
 10
143.645010
 20
45.637972
 30
0.0
 10
160.145849
 20
54.004599
 30
0.0
 10
174.522480
 20
65.085359
 30
0.0
 10
186.384280
 20
78.515338
 30
0.0
 10
195.340624
 20
93.929622
 30
0.0
 10
201.000888
 20
110.963296
 30
0.0
 10
202.974448
 20
129.251446
 30
0.0
  0
LWPOLYLINE
  5
104
100
AcDbEntity
  8
Layer_1
 62
7
100
AcDbPolyline
 90
7
 70
0
 10
28.433060
 20
154.178089
 30
0.0
 10
33.458776
 20
179.956001
 30
0.0
 10
47.287974
 20
201.665152
 30
0.0
 10
31.366677
 20
187.520951
 30
0.0
 10
19.198264
 20
170.337648
 30
0.0
 10
11.425704
 20
150.714687
 30
0.0
 10
8.691969
 20
129.251517
 30
0.0
  0
LWPOLYLINE
  5
105
100
AcDbEntity
  8
Layer_1
 62
7
100
AcDbPolyline
 90
71
 70
1
 10
58.022648
 20
166.559424
 30
0.0
 10
56.269210
 20
156.030198
 30
0.0
 10
57.050949
 20
147.598573
 30
0.0
 10
61.581470
 20
141.259967
 30
0.0
 10
67.801665
 20
139.442356
 30
0.0
 10
71.552337
 20
141.945590
 30
0.0
 10
72.746181
 20
153.298155
 30
0.0
 10
67.076205
 20
166.796711
 30
0.0
 10
60.088868
 20
179.756841
 30
0.0
 10
57.797135
 20
195.487863
 30
0.0
 10
63.702723
 20
210.077737
 30
0.0
 10
68.762527
 20
215.682538
 30
0.0
 10
72.832259
 20
222.842295
 30
0.0
 10
73.659214
 20
217.541677
 30
0.0
 10
71.867059
 20
209.226132
 30
0.0
 10
69.199458
 20
203.534933
 30
0.0
 10
69.627053
 20
197.382235
 30
0.0
 10
75.632256
 20
186.216202
 30
0.0
 10
78.957187
 20
183.614510
 30
0.0
 10
82.916059
 20
183.407032
 30
0.0
 10
86.175373
 20
186.920434
 30
0.0
 10
86.708155
 20
192.429853
 30
0.0
 10
84.533898
 20
203.048640
 30
0.0
 10
82.880561
 20
217.049067
 30
0.0
 10
87.982300
 20
230.026615
 30
0.0
 10
102.281971
 20
245.495655
 30
0.0
 10
105.547095
 20
253.918291
 30
0.0
 10
106.540175
 20
269.866866
 30
0.0
 10
113.629950
 20
259.865969
 30
0.0
 10
117.561675
 20
249.218817
 30
0.0
 10
118.562709
 20
237.926279
 30
0.0
 10
113.597142
 20
215.858001
 30
0.0
 10
112.327142
 20
209.464962
 30
0.0
 10
114.346442
 20
203.352382
 30
0.0
 10
120.179578
 20
199.736145
 30
0.0
 10
126.734233
 20
200.708312
 30
0.0
 10
128.422186
 20
206.270912
 30
0.0
 10
126.474236
 20
212.178529
 30
0.0
 10
126.342826
 20
222.238252
 30
0.0
 10
130.237316
 20
229.145728
 30
0.0
 10
133.885744
 20
240.660748
 30
0.0
 10
136.384822
 20
229.699237
 30
0.0
 10
134.777390
 20
221.978034
 30
0.0
 10
138.003366
 20
209.210962
 30
0.0
 10
145.473259
 20
191.413236
 30
0.0
 10
144.775994
 20
174.296546
 30
0.0
 10
139.785599
 20
155.241255
 30
0.0
 10
141.117688
 20
146.619366
 30
0.0
 10
146.112139
 20
144.114821
 30
0.0
 10
151.237824
 20
146.554808
 30
0.0
 10
152.695678
 20
153.666058
 30
0.0
 10
152.684566
 20
161.177094
 30
0.0
 10
157.678929
 20
167.720857
 30
0.0
 10
161.033404
 20
169.185149
 30
0.0
 10
159.655939
 20
164.441347
 30
0.0
 10
160.706027
 20
153.510527
 30
0.0
 10
163.683687
 20
140.756908
 30
0.0
 10
162.709832
 20
128.915655
 30
0.0
 10
158.374157
 20
118.240222
 30
0.0
 10
151.266355
 20
108.984064
 30
0.0
 10
131.093150
 20
95.743388
 30
0.0
 10
106.907769
 20
91.221262
 30
0.0
 10
93.170989
 20
93.062994
 30
0.0
 10
81.204734
 20
97.041302
 30
0.0
 10
66.299873
 20
105.704553
 30
0.0
 10
59.583508
 20
112.641427
 30
0.0
 10
51.213993
 20
126.132723
 30
0.0
 10
48.636425
 20
134.850409
 30
0.0
 10
48.318112
 20
144.623653
 30
0.0
 10
51.149904
 20
155.258108
 30
0.0
 10
58.022648
 20
166.559424
 30
0.0
  0
ENDSEC
  0
SECTION
  2
OBJECTS
  0
DICTIONARY
  5
C
330
0
100
AcDbDictionary
  3
ACAD_GROUP
350
D
  3
ACAD_MLINESTYLE
350
17
  0
DICTIONARY
  5
D
330
C
100
AcDbDictionary
  0
DICTIONARY
  5
1A
330
C
100
AcDbDictionary
  0
DICTIONARY
  5
17
330
C
100
AcDbDictionary
  3
STANDARD
350
18
  0
DICTIONARY
  5
19
330
C
100
AcDbDictionary
  0
ENDSEC
  0
EOF
